<svg xmlns="http://www.w3.org/2000/svg" xmlns:xlink="http://www.w3.org/1999/xlink" version="1.1" class="marks" width="829" height="420" viewBox="0 0 829 420"><rect width="829" height="420" fill="white"/><g fill="none" stroke-miterlimit="10" transform="translate(43,29)"><g class="mark-group role-frame root" role="graphics-object" aria-roledescription="group mark container"><g transform="translate(0,0)"><path class="background" aria-hidden="true" d="M0.5,0.5h650v350h-650Z" stroke="#ddd"/><g><g class="mark-rect role-mark marks" role="graphics-symbol" aria-roledescription="rect mark container"><path d="M0,0h54.166666666666664v14.583333333333334h-54.166666666666664Z" fill="rgb(61, 173, 193)"/><path d="M0,14.583333333333334h54.166666666666664v14.583333333333334h-54.166666666666664Z" fill="rgb(77, 184, 193)"/><path d="M0,29.166666666666668h54.166666666666664v14.583333333333334h-54.166666666666664Z" fill="rgb(86, 188, 192)"/><path d="M0,43.75h54.166666666666664v14.583333333333334h-54.166666666666664Z" fill="rgb(88, 189, 192)"/><path d="M0,58.333333333333336h54.166666666666664v14.583333333333334h-54.166666666666664Z" fill="rgb(81, 186, 193)"/><path d="M0,72.91666666666667h54.166666666666664v14.583333333333334h-54.166666666666664Z" fill="rgb(63, 174, 193)"/><path d="M0,87.5h54.166666666666664v14.583333333333334h-54.166666666666664Z" fill="rgb(41, 150, 190)"/><path d="M0,102.08333333333334h54.166666666666664v14.583333333333334h-54.166666666666664Z" fill="rgb(33, 128, 183)"/><path d="M0,116.66666666666667h54.166666666666664v14.583333333333334h-54.166666666666664Z" fill="rgb(33, 92, 167)"/><path d="M0,131.25h54.166666666666664v14.583333333333334h-54.166666666666664Z" fill="rgb(35, 76, 159)"/><path d="M0,145.83333333333334h54.166666666666664v14.583333333333334h-54.166666666666664Z" fill="rgb(34, 68, 153)"/><path d="M0,160.41666666666669h54.166666666666664v14.583333333333334h-54.166666666666664Z" fill="rgb(35, 73, 157)"/><path d="M0,175h54.166666666666664v14.583333333333334h-54.166666666666664Z" fill="rgb(35, 76, 158)"/><path d="M0,189.58333333333334h54.166666666666664v14.583333333333334h-54.166666666666664Z" fill="rgb(35, 76, 159)"/><path d="M0,204.16666666666669h54.166666666666664v14.583333333333334h-54.166666666666664Z" fill="rgb(35, 77, 159)"/><path d="M0,218.75h54.166666666666664v14.583333333333334h-54.166666666666664Z" fill="rgb(34, 69, 154)"/><path d="M0,233.33333333333334h54.166666666666664v14.583333333333334h-54.166666666666664Z" fill="rgb(30, 55, 139)"/><path d="M0,247.91666666666669h54.166666666666664v14.583333333333334h-54.166666666666664Z" fill="rgb(28, 49, 133)"/><path d="M0,262.5h54.166666666666664v14.583333333333334h-54.166666666666664Z" fill="rgb(31, 57, 142)"/><path d="M0,277.08333333333337h54.166666666666664v14.583333333333334h-54.166666666666664Z" fill="rgb(34, 67, 152)"/><path d="M0,291.6666666666667h54.166666666666664v14.583333333333334h-54.166666666666664Z" fill="rgb(35, 76, 158)"/><path d="M0,306.25h54.166666666666664v14.583333333333334h-54.166666666666664Z" fill="rgb(33, 92, 167)"/><path d="M0,320.83333333333337h54.166666666666664v14.583333333333334h-54.166666666666664Z" fill="rgb(33, 125, 182)"/><path d="M0,335.4166666666667h54.166666666666664v14.583333333333334h-54.166666666666664Z" fill="rgb(41, 151, 190)"/><path d="M54.166666666666664,0h54.166666666666664v14.583333333333334h-54.166666666666664Z" fill="rgb(70, 180, 194)"/><path d="M54.166666666666664,14.583333333333334h54.166666666666664v14.583333333333334h-54.166666666666664Z" fill="rgb(88, 189, 192)"/><path d="M54.166666666666664,29.166666666666668h54.166666666666664v14.583333333333334h-54.166666666666664Z" fill="rgb(96, 193, 191)"/><path d="M54.166666666666664,43.75h54.166666666666664v14.583333333333334h-54.166666666666664Z" fill="rgb(97, 193, 191)"/><path d="M54.166666666666664,58.333333333333336h54.166666666666664v14.583333333333334h-54.166666666666664Z" fill="rgb(88, 189, 192)"/><path d="M54.166666666666664,72.91666666666667h54.166666666666664v14.583333333333334h-54.166666666666664Z" fill="rgb(66, 177, 194)"/><path d="M54.166666666666664,87.5h54.166666666666664v14.583333333333334h-54.166666666666664Z" fill="rgb(40, 148, 189)"/><path d="M54.166666666666664,102.08333333333334h54.166666666666664v14.583333333333334h-54.166666666666664Z" fill="rgb(33, 124, 181)"/><path d="M54.166666666666664,116.66666666666667h54.166666666666664v14.583333333333334h-54.166666666666664Z" fill="rgb(33, 93, 167)"/><path d="M54.166666666666664,131.25h54.166666666666664v14.583333333333334h-54.166666666666664Z" fill="rgb(34, 83, 162)"/><path d="M54.166666666666664,145.83333333333334h54.166666666666664v14.583333333333334h-54.166666666666664Z" fill="rgb(35, 78, 159)"/><path d="M54.166666666666664,160.41666666666669h54.166666666666664v14.583333333333334h-54.166666666666664Z" fill="rgb(34, 84, 163)"/><path d="M54.166666666666664,175h54.166666666666664v14.583333333333334h-54.166666666666664Z" fill="rgb(34, 88, 165)"/><path d="M54.166666666666664,189.58333333333334h54.166666666666664v14.583333333333334h-54.166666666666664Z" fill="rgb(34, 90, 165)"/><path d="M54.166666666666664,204.16666666666669h54.166666666666664v14.583333333333334h-54.166666666666664Z" fill="rgb(34, 92, 167)"/><path d="M54.166666666666664,218.75h54.166666666666664v14.583333333333334h-54.166666666666664Z" fill="rgb(34, 90, 166)"/><path d="M54.166666666666664,233.33333333333334h54.166666666666664v14.583333333333334h-54.166666666666664Z" fill="rgb(34, 85, 163)"/><path d="M54.166666666666664,247.91666666666669h54.166666666666664v14.583333333333334h-54.166666666666664Z" fill="rgb(32, 61, 146)"/><path d="M54.166666666666664,262.5h54.166666666666664v14.583333333333334h-54.166666666666664Z" fill="rgb(32, 61, 146)"/><path d="M54.166666666666664,277.08333333333337h54.166666666666664v14.583333333333334h-54.166666666666664Z" fill="rgb(35, 70, 155)"/><path d="M54.166666666666664,291.6666666666667h54.166666666666664v14.583333333333334h-54.166666666666664Z" fill="rgb(34, 82, 161)"/><path d="M54.166666666666664,306.25h54.166666666666664v14.583333333333334h-54.166666666666664Z" fill="rgb(33, 101, 171)"/><path d="M54.166666666666664,320.83333333333337h54.166666666666664v14.583333333333334h-54.166666666666664Z" fill="rgb(35, 136, 186)"/><path d="M54.166666666666664,335.4166666666667h54.166666666666664v14.583333333333334h-54.166666666666664Z" fill="rgb(48, 161, 192)"/><path d="M108.33333333333333,0h54.166666666666664v14.583333333333334h-54.166666666666664Z" fill="rgb(116, 201, 189)"/><path d="M108.33333333333333,14.583333333333334h54.166666666666664v14.583333333333334h-54.166666666666664Z" fill="rgb(137, 209, 186)"/><path d="M108.33333333333333,29.166666666666668h54.166666666666664v14.583333333333334h-54.166666666666664Z" fill="rgb(145, 212, 185)"/><path d="M108.33333333333333,43.75h54.166666666666664v14.583333333333334h-54.166666666666664Z" fill="rgb(147, 213, 185)"/><path d="M108.33333333333333,58.333333333333336h54.166666666666664v14.583333333333334h-54.166666666666664Z" fill="rgb(137, 209, 186)"/><path d="M108.33333333333333,72.91666666666667h54.166666666666664v14.583333333333334h-54.166666666666664Z" fill="rgb(113, 200, 189)"/><path d="M108.33333333333333,87.5h54.166666666666664v14.583333333333334h-54.166666666666664Z" fill="rgb(73, 182, 194)"/><path d="M108.33333333333333,102.08333333333334h54.166666666666664v14.583333333333334h-54.166666666666664Z" fill="rgb(56, 168, 193)"/><path d="M108.33333333333333,116.66666666666667h54.166666666666664v14.583333333333334h-54.166666666666664Z" fill="rgb(40, 148, 189)"/><path d="M108.33333333333333,131.25h54.166666666666664v14.583333333333334h-54.166666666666664Z" fill="rgb(37, 140, 187)"/><path d="M108.33333333333333,145.83333333333334h54.166666666666664v14.583333333333334h-54.166666666666664Z" fill="rgb(35, 136, 186)"/><path d="M108.33333333333333,160.41666666666669h54.166666666666664v14.583333333333334h-54.166666666666664Z" fill="rgb(38, 143, 188)"/><path d="M108.33333333333333,175h54.166666666666664v14.583333333333334h-54.166666666666664Z" fill="rgb(39, 146, 188)"/><path d="M108.33333333333333,189.58333333333334h54.166666666666664v14.583333333333334h-54.166666666666664Z" fill="rgb(40, 147, 189)"/><path d="M108.33333333333333,204.16666666666669h54.166666666666664v14.583333333333334h-54.166666666666664Z" fill="rgb(41, 150, 190)"/><path d="M108.33333333333333,218.75h54.166666666666664v14.583333333333334h-54.166666666666664Z" fill="rgb(41, 150, 190)"/><path d="M108.33333333333333,233.33333333333334h54.166666666666664v14.583333333333334h-54.166666666666664Z" fill="rgb(40, 147, 189)"/><path d="M108.33333333333333,247.91666666666669h54.166666666666664v14.583333333333334h-54.166666666666664Z" fill="rgb(34, 133, 185)"/><path d="M108.33333333333333,262.5h54.166666666666664v14.583333333333334h-54.166666666666664Z" fill="rgb(33, 110, 175)"/><path d="M108.33333333333333,277.08333333333337h54.166666666666664v14.583333333333334h-54.166666666666664Z" fill="rgb(33, 110, 175)"/><path d="M108.33333333333333,291.6666666666667h54.166666666666664v14.583333333333334h-54.166666666666664Z" fill="rgb(33, 121, 180)"/><path d="M108.33333333333333,306.25h54.166666666666664v14.583333333333334h-54.166666666666664Z" fill="rgb(40, 149, 189)"/><path d="M108.33333333333333,320.83333333333337h54.166666666666664v14.583333333333334h-54.166666666666664Z" fill="rgb(59, 171, 193)"/><path d="M108.33333333333333,335.4166666666667h54.166666666666664v14.583333333333334h-54.166666666666664Z" fill="rgb(86, 188, 192)"/><path d="M162.5,0h54.166666666666664v14.583333333333334h-54.166666666666664Z" fill="rgb(183, 226, 182)"/><path d="M162.5,14.583333333333334h54.166666666666664v14.583333333333334h-54.166666666666664Z" fill="rgb(200, 234, 181)"/><path d="M162.5,29.166666666666668h54.166666666666664v14.583333333333334h-54.166666666666664Z" fill="rgb(207, 236, 180)"/><path d="M162.5,43.75h54.166666666666664v14.583333333333334h-54.166666666666664Z" fill="rgb(208, 237, 180)"/><path d="M162.5,58.333333333333336h54.166666666666664v14.583333333333334h-54.166666666666664Z" fill="rgb(203, 235, 181)"/><path d="M162.5,72.91666666666667h54.166666666666664v14.583333333333334h-54.166666666666664Z" fill="rgb(189, 229, 181)"/><path d="M162.5,87.5h54.166666666666664v14.583333333333334h-54.166666666666664Z" fill="rgb(147, 213, 185)"/><path d="M162.5,102.08333333333334h54.166666666666664v14.583333333333334h-54.166666666666664Z" fill="rgb(119, 202, 188)"/><path d="M162.5,116.66666666666667h54.166666666666664v14.583333333333334h-54.166666666666664Z" fill="rgb(91, 190, 192)"/><path d="M162.5,131.25h54.166666666666664v14.583333333333334h-54.166666666666664Z" fill="rgb(82, 186, 193)"/><path d="M162.5,145.83333333333334h54.166666666666664v14.583333333333334h-54.166666666666664Z" fill="rgb(78, 184, 193)"/><path d="M162.5,160.41666666666669h54.166666666666664v14.583333333333334h-54.166666666666664Z" fill="rgb(86, 188, 192)"/><path d="M162.5,175h54.166666666666664v14.583333333333334h-54.166666666666664Z" fill="rgb(90, 190, 192)"/><path d="M162.5,189.58333333333334h54.166666666666664v14.583333333333334h-54.166666666666664Z" fill="rgb(91, 190, 192)"/><path d="M162.5,204.16666666666669h54.166666666666664v14.583333333333334h-54.166666666666664Z" fill="rgb(96, 193, 191)"/><path d="M162.5,218.75h54.166666666666664v14.583333333333334h-54.166666666666664Z" fill="rgb(100, 195, 191)"/><path d="M162.5,233.33333333333334h54.166666666666664v14.583333333333334h-54.166666666666664Z" fill="rgb(101, 195, 190)"/><path d="M162.5,247.91666666666669h54.166666666666664v14.583333333333334h-54.166666666666664Z" fill="rgb(102, 196, 190)"/><path d="M162.5,262.5h54.166666666666664v14.583333333333334h-54.166666666666664Z" fill="rgb(96, 193, 191)"/><path d="M162.5,277.08333333333337h54.166666666666664v14.583333333333334h-54.166666666666664Z" fill="rgb(64, 175, 194)"/><path d="M162.5,291.6666666666667h54.166666666666664v14.583333333333334h-54.166666666666664Z" fill="rgb(43, 155, 191)"/><path d="M162.5,306.25h54.166666666666664v14.583333333333334h-54.166666666666664Z" fill="rgb(61, 173, 193)"/><path d="M162.5,320.83333333333337h54.166666666666664v14.583333333333334h-54.166666666666664Z" fill="rgb(98, 194, 191)"/><path d="M162.5,335.4166666666667h54.166666666666664v14.583333333333334h-54.166666666666664Z" fill="rgb(147, 213, 185)"/><path d="M216.66666666666666,0h54.166666666666664v14.583333333333334h-54.166666666666664Z" fill="rgb(220, 241, 180)"/><path d="M216.66666666666666,14.583333333333334h54.166666666666664v14.583333333333334h-54.166666666666664Z" fill="rgb(231, 246, 185)"/><path d="M216.66666666666666,29.166666666666668h54.166666666666664v14.583333333333334h-54.166666666666664Z" fill="rgb(235, 247, 187)"/><path d="M216.66666666666666,43.75h54.166666666666664v14.583333333333334h-54.166666666666664Z" fill="rgb(236, 248, 188)"/><path d="M216.66666666666666,58.333333333333336h54.166666666666664v14.583333333333334h-54.166666666666664Z" fill="rgb(235, 247, 187)"/><path d="M216.66666666666666,72.91666666666667h54.166666666666664v14.583333333333334h-54.166666666666664Z" fill="rgb(224, 243, 182)"/><path d="M216.66666666666666,87.5h54.166666666666664v14.583333333333334h-54.166666666666664Z" fill="rgb(199, 233, 181)"/><path d="M216.66666666666666,102.08333333333334h54.166666666666664v14.583333333333334h-54.166666666666664Z" fill="rgb(180, 226, 182)"/><path d="M216.66666666666666,116.66666666666667h54.166666666666664v14.583333333333334h-54.166666666666664Z" fill="rgb(149, 214, 185)"/><path d="M216.66666666666666,131.25h54.166666666666664v14.583333333333334h-54.166666666666664Z" fill="rgb(137, 209, 186)"/><path d="M216.66666666666666,145.83333333333334h54.166666666666664v14.583333333333334h-54.166666666666664Z" fill="rgb(138, 209, 186)"/><path d="M216.66666666666666,160.41666666666669h54.166666666666664v14.583333333333334h-54.166666666666664Z" fill="rgb(132, 207, 187)"/><path d="M216.66666666666666,175h54.166666666666664v14.583333333333334h-54.166666666666664Z" fill="rgb(133, 207, 187)"/><path d="M216.66666666666666,189.58333333333334h54.166666666666664v14.583333333333334h-54.166666666666664Z" fill="rgb(132, 207, 187)"/><path d="M216.66666666666666,204.16666666666669h54.166666666666664v14.583333333333334h-54.166666666666664Z" fill="rgb(137, 209, 186)"/><path d="M216.66666666666666,218.75h54.166666666666664v14.583333333333334h-54.166666666666664Z" fill="rgb(140, 210, 186)"/><path d="M216.66666666666666,233.33333333333334h54.166666666666664v14.583333333333334h-54.166666666666664Z" fill="rgb(141, 210, 186)"/><path d="M216.66666666666666,247.91666666666669h54.166666666666664v14.583333333333334h-54.166666666666664Z" fill="rgb(138, 209, 186)"/><path d="M216.66666666666666,262.5h54.166666666666664v14.583333333333334h-54.166666666666664Z" fill="rgb(136, 208, 186)"/><path d="M216.66666666666666,277.08333333333337h54.166666666666664v14.583333333333334h-54.166666666666664Z" fill="rgb(134, 208, 187)"/><path d="M216.66666666666666,291.6666666666667h54.166666666666664v14.583333333333334h-54.166666666666664Z" fill="rgb(94, 192, 191)"/><path d="M216.66666666666666,306.25h54.166666666666664v14.583333333333334h-54.166666666666664Z" fill="rgb(99, 194, 191)"/><path d="M216.66666666666666,320.83333333333337h54.166666666666664v14.583333333333334h-54.166666666666664Z" fill="rgb(157, 216, 184)"/><path d="M216.66666666666666,335.4166666666667h54.166666666666664v14.583333333333334h-54.166666666666664Z" fill="rgb(196, 232, 181)"/><path d="M270.8333333333333,0h54.166666666666664v14.583333333333334h-54.166666666666664Z" fill="rgb(215, 239, 180)"/><path d="M270.8333333333333,14.583333333333334h54.166666666666664v14.583333333333334h-54.166666666666664Z" fill="rgb(227, 244, 184)"/><path d="M270.8333333333333,29.166666666666668h54.166666666666664v14.583333333333334h-54.166666666666664Z" fill="rgb(232, 246, 186)"/><path d="M270.8333333333333,43.75h54.166666666666664v14.583333333333334h-54.166666666666664Z" fill="rgb(235, 247, 187)"/><path d="M270.8333333333333,58.333333333333336h54.166666666666664v14.583333333333334h-54.166666666666664Z" fill="rgb(235, 247, 187)"/><path d="M270.8333333333333,72.91666666666667h54.166666666666664v14.583333333333334h-54.166666666666664Z" fill="rgb(224, 243, 182)"/><path d="M270.8333333333333,87.5h54.166666666666664v14.583333333333334h-54.166666666666664Z" fill="rgb(203, 235, 181)"/><path d="M270.8333333333333,102.08333333333334h54.166666666666664v14.583333333333334h-54.166666666666664Z" fill="rgb(183, 227, 182)"/><path d="M270.8333333333333,116.66666666666667h54.166666666666664v14.583333333333334h-54.166666666666664Z" fill="rgb(146, 212, 185)"/><path d="M270.8333333333333,131.25h54.166666666666664v14.583333333333334h-54.166666666666664Z" fill="rgb(127, 205, 187)"/><path d="M270.8333333333333,145.83333333333334h54.166666666666664v14.583333333333334h-54.166666666666664Z" fill="rgb(124, 204, 188)"/><path d="M270.8333333333333,160.41666666666669h54.166666666666664v14.583333333333334h-54.166666666666664Z" fill="rgb(115, 201, 189)"/><path d="M270.8333333333333,175h54.166666666666664v14.583333333333334h-54.166666666666664Z" fill="rgb(114, 200, 189)"/><path d="M270.8333333333333,189.58333333333334h54.166666666666664v14.583333333333334h-54.166666666666664Z" fill="rgb(111, 199, 189)"/><path d="M270.8333333333333,204.16666666666669h54.166666666666664v14.583333333333334h-54.166666666666664Z" fill="rgb(114, 200, 189)"/><path d="M270.8333333333333,218.75h54.166666666666664v14.583333333333334h-54.166666666666664Z" fill="rgb(117, 201, 189)"/><path d="M270.8333333333333,233.33333333333334h54.166666666666664v14.583333333333334h-54.166666666666664Z" fill="rgb(119, 202, 188)"/><path d="M270.8333333333333,247.91666666666669h54.166666666666664v14.583333333333334h-54.166666666666664Z" fill="rgb(120, 203, 188)"/><path d="M270.8333333333333,262.5h54.166666666666664v14.583333333333334h-54.166666666666664Z" fill="rgb(124, 204, 188)"/><path d="M270.8333333333333,277.08333333333337h54.166666666666664v14.583333333333334h-54.166666666666664Z" fill="rgb(135, 208, 187)"/><path d="M270.8333333333333,291.6666666666667h54.166666666666664v14.583333333333334h-54.166666666666664Z" fill="rgb(113, 200, 189)"/><path d="M270.8333333333333,306.25h54.166666666666664v14.583333333333334h-54.166666666666664Z" fill="rgb(94, 192, 191)"/><path d="M270.8333333333333,320.83333333333337h54.166666666666664v14.583333333333334h-54.166666666666664Z" fill="rgb(141, 210, 186)"/><path d="M270.8333333333333,335.4166666666667h54.166666666666664v14.583333333333334h-54.166666666666664Z" fill="rgb(187, 228, 181)"/><path d="M325,0h54.166666666666664v14.583333333333334h-54.166666666666664Z" fill="rgb(212, 238, 180)"/><path d="M325,14.583333333333334h54.166666666666664v14.583333333333334h-54.166666666666664Z" fill="rgb(226, 244, 183)"/><path d="M325,29.166666666666668h54.166666666666664v14.583333333333334h-54.166666666666664Z" fill="rgb(230, 246, 185)"/><path d="M325,43.75h54.166666666666664v14.583333333333334h-54.166666666666664Z" fill="rgb(233, 246, 186)"/><path d="M325,58.333333333333336h54.166666666666664v14.583333333333334h-54.166666666666664Z" fill="rgb(233, 247, 186)"/><path d="M325,72.91666666666667h54.166666666666664v14.583333333333334h-54.166666666666664Z" fill="rgb(224, 243, 182)"/><path d="M325,87.5h54.166666666666664v14.583333333333334h-54.166666666666664Z" fill="rgb(204, 235, 181)"/><path d="M325,102.08333333333334h54.166666666666664v14.583333333333334h-54.166666666666664Z" fill="rgb(184, 227, 181)"/><path d="M325,116.66666666666667h54.166666666666664v14.583333333333334h-54.166666666666664Z" fill="rgb(142, 211, 186)"/><path d="M325,131.25h54.166666666666664v14.583333333333334h-54.166666666666664Z" fill="rgb(120, 203, 188)"/><path d="M325,145.83333333333334h54.166666666666664v14.583333333333334h-54.166666666666664Z" fill="rgb(115, 201, 189)"/><path d="M325,160.41666666666669h54.166666666666664v14.583333333333334h-54.166666666666664Z" fill="rgb(107, 198, 190)"/><path d="M325,175h54.166666666666664v14.583333333333334h-54.166666666666664Z" fill="rgb(104, 196, 190)"/><path d="M325,189.58333333333334h54.166666666666664v14.583333333333334h-54.166666666666664Z" fill="rgb(100, 195, 191)"/><path d="M325,204.16666666666669h54.166666666666664v14.583333333333334h-54.166666666666664Z" fill="rgb(103, 196, 190)"/><path d="M325,218.75h54.166666666666664v14.583333333333334h-54.166666666666664Z" fill="rgb(105, 197, 190)"/><path d="M325,233.33333333333334h54.166666666666664v14.583333333333334h-54.166666666666664Z" fill="rgb(107, 198, 190)"/><path d="M325,247.91666666666669h54.166666666666664v14.583333333333334h-54.166666666666664Z" fill="rgb(110, 199, 189)"/><path d="M325,262.5h54.166666666666664v14.583333333333334h-54.166666666666664Z" fill="rgb(115, 201, 189)"/><path d="M325,277.08333333333337h54.166666666666664v14.583333333333334h-54.166666666666664Z" fill="rgb(127, 205, 187)"/><path d="M325,291.6666666666667h54.166666666666664v14.583333333333334h-54.166666666666664Z" fill="rgb(105, 197, 190)"/><path d="M325,306.25h54.166666666666664v14.583333333333334h-54.166666666666664Z" fill="rgb(90, 190, 192)"/><path d="M325,320.83333333333337h54.166666666666664v14.583333333333334h-54.166666666666664Z" fill="rgb(140, 210, 186)"/><path d="M325,335.4166666666667h54.166666666666664v14.583333333333334h-54.166666666666664Z" fill="rgb(186, 228, 181)"/><path d="M379.16666666666663,0h54.166666666666664v14.583333333333334h-54.166666666666664Z" fill="rgb(218, 241, 180)"/><path d="M379.16666666666663,14.583333333333334h54.166666666666664v14.583333333333334h-54.166666666666664Z" fill="rgb(228, 245, 184)"/><path d="M379.16666666666663,29.166666666666668h54.166666666666664v14.583333333333334h-54.166666666666664Z" fill="rgb(232, 246, 186)"/><path d="M379.16666666666663,43.75h54.166666666666664v14.583333333333334h-54.166666666666664Z" fill="rgb(234, 247, 187)"/><path d="M379.16666666666663,58.333333333333336h54.166666666666664v14.583333333333334h-54.166666666666664Z" fill="rgb(232, 246, 186)"/><path d="M379.16666666666663,72.91666666666667h54.166666666666664v14.583333333333334h-54.166666666666664Z" fill="rgb(226, 244, 183)"/><path d="M379.16666666666663,87.5h54.166666666666664v14.583333333333334h-54.166666666666664Z" fill="rgb(207, 236, 180)"/><path d="M379.16666666666663,102.08333333333334h54.166666666666664v14.583333333333334h-54.166666666666664Z" fill="rgb(188, 229, 181)"/><path d="M379.16666666666663,116.66666666666667h54.166666666666664v14.583333333333334h-54.166666666666664Z" fill="rgb(147, 213, 185)"/><path d="M379.16666666666663,131.25h54.166666666666664v14.583333333333334h-54.166666666666664Z" fill="rgb(127, 205, 187)"/><path d="M379.16666666666663,145.83333333333334h54.166666666666664v14.583333333333334h-54.166666666666664Z" fill="rgb(122, 203, 188)"/><path d="M379.16666666666663,160.41666666666669h54.166666666666664v14.583333333333334h-54.166666666666664Z" fill="rgb(114, 200, 189)"/><path d="M379.16666666666663,175h54.166666666666664v14.583333333333334h-54.166666666666664Z" fill="rgb(110, 199, 189)"/><path d="M379.16666666666663,189.58333333333334h54.166666666666664v14.583333333333334h-54.166666666666664Z" fill="rgb(105, 197, 190)"/><path d="M379.16666666666663,204.16666666666669h54.166666666666664v14.583333333333334h-54.166666666666664Z" fill="rgb(107, 198, 190)"/><path d="M379.16666666666663,218.75h54.166666666666664v14.583333333333334h-54.166666666666664Z" fill="rgb(108, 198, 190)"/><path d="M379.16666666666663,233.33333333333334h54.166666666666664v14.583333333333334h-54.166666666666664Z" fill="rgb(110, 199, 189)"/><path d="M379.16666666666663,247.91666666666669h54.166666666666664v14.583333333333334h-54.166666666666664Z" fill="rgb(111, 199, 189)"/><path d="M379.16666666666663,262.5h54.166666666666664v14.583333333333334h-54.166666666666664Z" fill="rgb(116, 201, 189)"/><path d="M379.16666666666663,277.08333333333337h54.166666666666664v14.583333333333334h-54.166666666666664Z" fill="rgb(116, 201, 189)"/><path d="M379.16666666666663,291.6666666666667h54.166666666666664v14.583333333333334h-54.166666666666664Z" fill="rgb(81, 186, 193)"/><path d="M379.16666666666663,306.25h54.166666666666664v14.583333333333334h-54.166666666666664Z" fill="rgb(100, 195, 191)"/><path d="M379.16666666666663,320.83333333333337h54.166666666666664v14.583333333333334h-54.166666666666664Z" fill="rgb(160, 218, 184)"/><path d="M379.16666666666663,335.4166666666667h54.166666666666664v14.583333333333334h-54.166666666666664Z" fill="rgb(197, 232, 181)"/><path d="M433.3333333333333,0h54.166666666666664v14.583333333333334h-54.166666666666664Z" fill="rgb(226, 244, 183)"/><path d="M433.3333333333333,14.583333333333334h54.166666666666664v14.583333333333334h-54.166666666666664Z" fill="rgb(235, 247, 187)"/><path d="M433.3333333333333,29.166666666666668h54.166666666666664v14.583333333333334h-54.166666666666664Z" fill="rgb(238, 249, 189)"/><path d="M433.3333333333333,43.75h54.166666666666664v14.583333333333334h-54.166666666666664Z" fill="rgb(239, 249, 189)"/><path d="M433.3333333333333,58.333333333333336h54.166666666666664v14.583333333333334h-54.166666666666664Z" fill="rgb(236, 248, 187)"/><path d="M433.3333333333333,72.91666666666667h54.166666666666664v14.583333333333334h-54.166666666666664Z" fill="rgb(225, 243, 183)"/><path d="M433.3333333333333,87.5h54.166666666666664v14.583333333333334h-54.166666666666664Z" fill="rgb(195, 231, 181)"/><path d="M433.3333333333333,102.08333333333334h54.166666666666664v14.583333333333334h-54.166666666666664Z" fill="rgb(172, 222, 183)"/><path d="M433.3333333333333,116.66666666666667h54.166666666666664v14.583333333333334h-54.166666666666664Z" fill="rgb(143, 211, 186)"/><path d="M433.3333333333333,131.25h54.166666666666664v14.583333333333334h-54.166666666666664Z" fill="rgb(132, 207, 187)"/><path d="M433.3333333333333,145.83333333333334h54.166666666666664v14.583333333333334h-54.166666666666664Z" fill="rgb(126, 205, 188)"/><path d="M433.3333333333333,160.41666666666669h54.166666666666664v14.583333333333334h-54.166666666666664Z" fill="rgb(133, 207, 187)"/><path d="M433.3333333333333,175h54.166666666666664v14.583333333333334h-54.166666666666664Z" fill="rgb(132, 207, 187)"/><path d="M433.3333333333333,189.58333333333334h54.166666666666664v14.583333333333334h-54.166666666666664Z" fill="rgb(128, 206, 187)"/><path d="M433.3333333333333,204.16666666666669h54.166666666666664v14.583333333333334h-54.166666666666664Z" fill="rgb(129, 206, 187)"/><path d="M433.3333333333333,218.75h54.166666666666664v14.583333333333334h-54.166666666666664Z" fill="rgb(128, 206, 187)"/><path d="M433.3333333333333,233.33333333333334h54.166666666666664v14.583333333333334h-54.166666666666664Z" fill="rgb(128, 206, 187)"/><path d="M433.3333333333333,247.91666666666669h54.166666666666664v14.583333333333334h-54.166666666666664Z" fill="rgb(130, 206, 187)"/><path d="M433.3333333333333,262.5h54.166666666666664v14.583333333333334h-54.166666666666664Z" fill="rgb(114, 200, 189)"/><path d="M433.3333333333333,277.08333333333337h54.166666666666664v14.583333333333334h-54.166666666666664Z" fill="rgb(77, 184, 193)"/><path d="M433.3333333333333,291.6666666666667h54.166666666666664v14.583333333333334h-54.166666666666664Z" fill="rgb(79, 185, 193)"/><path d="M433.3333333333333,306.25h54.166666666666664v14.583333333333334h-54.166666666666664Z" fill="rgb(122, 203, 188)"/><path d="M433.3333333333333,320.83333333333337h54.166666666666664v14.583333333333334h-54.166666666666664Z" fill="rgb(171, 222, 183)"/><path d="M433.3333333333333,335.4166666666667h54.166666666666664v14.583333333333334h-54.166666666666664Z" fill="rgb(205, 235, 180)"/><path d="M487.5,0h54.166666666666664v14.583333333333334h-54.166666666666664Z" fill="rgb(184, 227, 181)"/><path d="M487.5,14.583333333333334h54.166666666666664v14.583333333333334h-54.166666666666664Z" fill="rgb(200, 233, 181)"/><path d="M487.5,29.166666666666668h54.166666666666664v14.583333333333334h-54.166666666666664Z" fill="rgb(207, 236, 180)"/><path d="M487.5,43.75h54.166666666666664v14.583333333333334h-54.166666666666664Z" fill="rgb(208, 237, 180)"/><path d="M487.5,58.333333333333336h54.166666666666664v14.583333333333334h-54.166666666666664Z" fill="rgb(202, 234, 181)"/><path d="M487.5,72.91666666666667h54.166666666666664v14.583333333333334h-54.166666666666664Z" fill="rgb(178, 225, 182)"/><path d="M487.5,87.5h54.166666666666664v14.583333333333334h-54.166666666666664Z" fill="rgb(128, 206, 187)"/><path d="M487.5,102.08333333333334h54.166666666666664v14.583333333333334h-54.166666666666664Z" fill="rgb(99, 194, 191)"/><path d="M487.5,116.66666666666667h54.166666666666664v14.583333333333334h-54.166666666666664Z" fill="rgb(69, 180, 194)"/><path d="M487.5,131.25h54.166666666666664v14.583333333333334h-54.166666666666664Z" fill="rgb(62, 174, 193)"/><path d="M487.5,145.83333333333334h54.166666666666664v14.583333333333334h-54.166666666666664Z" fill="rgb(60, 172, 193)"/><path d="M487.5,160.41666666666669h54.166666666666664v14.583333333333334h-54.166666666666664Z" fill="rgb(67, 178, 194)"/><path d="M487.5,175h54.166666666666664v14.583333333333334h-54.166666666666664Z" fill="rgb(71, 181, 194)"/><path d="M487.5,189.58333333333334h54.166666666666664v14.583333333333334h-54.166666666666664Z" fill="rgb(70, 180, 194)"/><path d="M487.5,204.16666666666669h54.166666666666664v14.583333333333334h-54.166666666666664Z" fill="rgb(72, 181, 194)"/><path d="M487.5,218.75h54.166666666666664v14.583333333333334h-54.166666666666664Z" fill="rgb(70, 180, 194)"/><path d="M487.5,233.33333333333334h54.166666666666664v14.583333333333334h-54.166666666666664Z" fill="rgb(63, 175, 194)"/><path d="M487.5,247.91666666666669h54.166666666666664v14.583333333333334h-54.166666666666664Z" fill="rgb(52, 165, 193)"/><path d="M487.5,262.5h54.166666666666664v14.583333333333334h-54.166666666666664Z" fill="rgb(38, 142, 187)"/><path d="M487.5,277.08333333333337h54.166666666666664v14.583333333333334h-54.166666666666664Z" fill="rgb(38, 142, 187)"/><path d="M487.5,291.6666666666667h54.166666666666664v14.583333333333334h-54.166666666666664Z" fill="rgb(43, 155, 191)"/><path d="M487.5,306.25h54.166666666666664v14.583333333333334h-54.166666666666664Z" fill="rgb(67, 178, 194)"/><path d="M487.5,320.83333333333337h54.166666666666664v14.583333333333334h-54.166666666666664Z" fill="rgb(102, 196, 190)"/><path d="M487.5,335.4166666666667h54.166666666666664v14.583333333333334h-54.166666666666664Z" fill="rgb(145, 212, 185)"/><path d="M541.6666666666666,0h54.166666666666664v14.583333333333334h-54.166666666666664Z" fill="rgb(115, 201, 189)"/><path d="M541.6666666666666,14.583333333333334h54.166666666666664v14.583333333333334h-54.166666666666664Z" fill="rgb(137, 209, 186)"/><path d="M541.6666666666666,29.166666666666668h54.166666666666664v14.583333333333334h-54.166666666666664Z" fill="rgb(145, 212, 185)"/><path d="M541.6666666666666,43.75h54.166666666666664v14.583333333333334h-54.166666666666664Z" fill="rgb(146, 212, 185)"/><path d="M541.6666666666666,58.333333333333336h54.166666666666664v14.583333333333334h-54.166666666666664Z" fill="rgb(136, 208, 186)"/><path d="M541.6666666666666,72.91666666666667h54.166666666666664v14.583333333333334h-54.166666666666664Z" fill="rgb(104, 197, 190)"/><path d="M541.6666666666666,87.5h54.166666666666664v14.583333333333334h-54.166666666666664Z" fill="rgb(63, 175, 194)"/><path d="M541.6666666666666,102.08333333333334h54.166666666666664v14.583333333333334h-54.166666666666664Z" fill="rgb(44, 157, 192)"/><path d="M541.6666666666666,116.66666666666667h54.166666666666664v14.583333333333334h-54.166666666666664Z" fill="rgb(33, 131, 184)"/><path d="M541.6666666666666,131.25h54.166666666666664v14.583333333333334h-54.166666666666664Z" fill="rgb(33, 120, 179)"/><path d="M541.6666666666666,145.83333333333334h54.166666666666664v14.583333333333334h-54.166666666666664Z" fill="rgb(33, 114, 177)"/><path d="M541.6666666666666,160.41666666666669h54.166666666666664v14.583333333333334h-54.166666666666664Z" fill="rgb(33, 121, 180)"/><path d="M541.6666666666666,175h54.166666666666664v14.583333333333334h-54.166666666666664Z" fill="rgb(33, 122, 181)"/><path d="M541.6666666666666,189.58333333333334h54.166666666666664v14.583333333333334h-54.166666666666664Z" fill="rgb(33, 120, 179)"/><path d="M541.6666666666666,204.16666666666669h54.166666666666664v14.583333333333334h-54.166666666666664Z" fill="rgb(33, 118, 179)"/><path d="M541.6666666666666,218.75h54.166666666666664v14.583333333333334h-54.166666666666664Z" fill="rgb(33, 105, 173)"/><path d="M541.6666666666666,233.33333333333334h54.166666666666664v14.583333333333334h-54.166666666666664Z" fill="rgb(34, 83, 162)"/><path d="M541.6666666666666,247.91666666666669h54.166666666666664v14.583333333333334h-54.166666666666664Z" fill="rgb(34, 79, 160)"/><path d="M541.6666666666666,262.5h54.166666666666664v14.583333333333334h-54.166666666666664Z" fill="rgb(34, 91, 166)"/><path d="M541.6666666666666,277.08333333333337h54.166666666666664v14.583333333333334h-54.166666666666664Z" fill="rgb(33, 105, 173)"/><path d="M541.6666666666666,291.6666666666667h54.166666666666664v14.583333333333334h-54.166666666666664Z" fill="rgb(33, 118, 179)"/><path d="M541.6666666666666,306.25h54.166666666666664v14.583333333333334h-54.166666666666664Z" fill="rgb(36, 138, 186)"/><path d="M541.6666666666666,320.83333333333337h54.166666666666664v14.583333333333334h-54.166666666666664Z" fill="rgb(55, 167, 193)"/><path d="M541.6666666666666,335.4166666666667h54.166666666666664v14.583333333333334h-54.166666666666664Z" fill="rgb(81, 186, 193)"/><path d="M595.8333333333333,0h54.166666666666664v14.583333333333334h-54.166666666666664Z" fill="rgb(78, 184, 193)"/><path d="M595.8333333333333,14.583333333333334h54.166666666666664v14.583333333333334h-54.166666666666664Z" fill="rgb(98, 194, 191)"/><path d="M595.8333333333333,29.166666666666668h54.166666666666664v14.583333333333334h-54.166666666666664Z" fill="rgb(107, 198, 190)"/><path d="M595.8333333333333,43.75h54.166666666666664v14.583333333333334h-54.166666666666664Z" fill="rgb(109, 198, 190)"/><path d="M595.8333333333333,58.333333333333336h54.166666666666664v14.583333333333334h-54.166666666666664Z" fill="rgb(99, 194, 191)"/><path d="M595.8333333333333,72.91666666666667h54.166666666666664v14.583333333333334h-54.166666666666664Z" fill="rgb(74, 183, 193)"/><path d="M595.8333333333333,87.5h54.166666666666664v14.583333333333334h-54.166666666666664Z" fill="rgb(43, 156, 191)"/><path d="M595.8333333333333,102.08333333333334h54.166666666666664v14.583333333333334h-54.166666666666664Z" fill="rgb(34, 134, 185)"/><path d="M595.8333333333333,116.66666666666667h54.166666666666664v14.583333333333334h-54.166666666666664Z" fill="rgb(33, 101, 171)"/><path d="M595.8333333333333,131.25h54.166666666666664v14.583333333333334h-54.166666666666664Z" fill="rgb(34, 89, 165)"/><path d="M595.8333333333333,145.83333333333334h54.166666666666664v14.583333333333334h-54.166666666666664Z" fill="rgb(34, 84, 162)"/><path d="M595.8333333333333,160.41666666666669h54.166666666666664v14.583333333333334h-54.166666666666664Z" fill="rgb(34, 89, 165)"/><path d="M595.8333333333333,175h54.166666666666664v14.583333333333334h-54.166666666666664Z" fill="rgb(34, 91, 166)"/><path d="M595.8333333333333,189.58333333333334h54.166666666666664v14.583333333333334h-54.166666666666664Z" fill="rgb(34, 90, 165)"/><path d="M595.8333333333333,204.16666666666669h54.166666666666664v14.583333333333334h-54.166666666666664Z" fill="rgb(34, 88, 165)"/><path d="M595.8333333333333,218.75h54.166666666666664v14.583333333333334h-54.166666666666664Z" fill="rgb(35, 75, 158)"/><path d="M595.8333333333333,233.33333333333334h54.166666666666664v14.583333333333334h-54.166666666666664Z" fill="rgb(32, 61, 146)"/><path d="M595.8333333333333,247.91666666666669h54.166666666666664v14.583333333333334h-54.166666666666664Z" fill="rgb(33, 64, 148)"/><path d="M595.8333333333333,262.5h54.166666666666664v14.583333333333334h-54.166666666666664Z" fill="rgb(35, 73, 157)"/><path d="M595.8333333333333,277.08333333333337h54.166666666666664v14.583333333333334h-54.166666666666664Z" fill="rgb(34, 84, 163)"/><path d="M595.8333333333333,291.6666666666667h54.166666666666664v14.583333333333334h-54.166666666666664Z" fill="rgb(33, 94, 168)"/><path d="M595.8333333333333,306.25h54.166666666666664v14.583333333333334h-54.166666666666664Z" fill="rgb(33, 113, 176)"/><path d="M595.8333333333333,320.83333333333337h54.166666666666664v14.583333333333334h-54.166666666666664Z" fill="rgb(38, 143, 188)"/><path d="M595.8333333333333,335.4166666666667h54.166666666666664v14.583333333333334h-54.166666666666664Z" fill="rgb(52, 165, 193)"/></g><g class="mark-group role-legend" role="graphics-symbol" aria-roledescription="legend" aria-label="Gradient legend titled 'CONSUMPTION' for fill color with values from 12,580 to 22,460"><g transform="translate(668,0)"><path class="background" aria-hidden="true" d="M0,0h113v220h-113Z" pointer-events="none"/><g><g class="mark-group role-legend-entry"><g transform="translate(0,20)"><path class="background" aria-hidden="true" d="M0,0h0v0h0Z" pointer-events="none"/><g><g class="mark-rect role-legend-gradient" pointer-events="none"><path d="M0,0h16v200h-16Z" fill="url(#gradient_0)" stroke="#ddd" stroke-width="0" opacity="1"/></g><g class="mark-text role-legend-label" pointer-events="none"><text text-anchor="start" transform="translate(18,175.25506072874495)" font-family="sans-serif" font-size="14px" fill="#000" opacity="1">14,000</text><text text-anchor="start" transform="translate(18,134.76923076923077)" font-family="sans-serif" font-size="14px" fill="#000" opacity="1">16,000</text><text text-anchor="start" transform="translate(18,94.2834008097166)" font-family="sans-serif" font-size="14px" fill="#000" opacity="1">18,000</text><text text-anchor="start" transform="translate(18,53.79757085020242)" font-family="sans-serif" font-size="14px" fill="#000" opacity="1">20,000</text><text text-anchor="start" transform="translate(18,13.31174089068827)" font-family="sans-serif" font-size="14px" fill="#000" opacity="1">22,000</text></g></g><path class="foreground" aria-hidden="true" d="" pointer-events="none" display="none"/></g></g><g class="mark-text role-legend-title" pointer-events="none"><text text-anchor="start" transform="translate(0,12)" font-family="sans-serif" font-size="15px" font-weight="bold" fill="#000" opacity="1">CONSUMPTION</text></g></g><path class="foreground" aria-hidden="true" d="" pointer-events="none" display="none"/></g></g><g class="mark-group role-title"><g transform="translate(325,-24)"><path class="background" aria-hidden="true" d="M0,0h0v0h0Z" pointer-events="none"/><g><g class="mark-text role-title-text" role="graphics-symbol" aria-roledescription="title" aria-label="Title text 'Electricity consumption changing during the day in terms of months'" pointer-events="none"><text text-anchor="middle" transform="translate(0,16)" font-family="sans-serif" font-size="20px" font-weight="bold" fill="#000" opacity="1">Electricity consumption changing during the day in terms of months</text></g></g><path class="foreground" aria-hidden="true" d="" pointer-events="none" display="none"/></g></g><g class="mark-group role-axis" role="graphics-symbol" aria-roledescription="axis" aria-label="X-axis titled 'Month' for a discrete scale with 12 values: 01, 02, 03, 04, 05, ending with 12"><g transform="translate(0.5,350.5)"><path class="background" aria-hidden="true" d="M0,0h0v0h0Z" pointer-events="none"/><g><g class="mark-rule role-axis-tick" pointer-events="none"><line transform="translate(27,0)" x2="0" y2="5" stroke="#888" stroke-width="1" opacity="1"/><line transform="translate(81,0)" x2="0" y2="5" stroke="#888" stroke-width="1" opacity="1"/><line transform="translate(135,0)" x2="0" y2="5" stroke="#888" stroke-width="1" opacity="1"/><line transform="translate(189,0)" x2="0" y2="5" stroke="#888" stroke-width="1" opacity="1"/><line transform="translate(243,0)" x2="0" y2="5" stroke="#888" stroke-width="1" opacity="1"/><line transform="translate(297,0)" x2="0" y2="5" stroke="#888" stroke-width="1" opacity="1"/><line transform="translate(352,0)" x2="0" y2="5" stroke="#888" stroke-width="1" opacity="1"/><line transform="translate(406,0)" x2="0" y2="5" stroke="#888" stroke-width="1" opacity="1"/><line transform="translate(460,0)" x2="0" y2="5" stroke="#888" stroke-width="1" opacity="1"/><line transform="translate(514,0)" x2="0" y2="5" stroke="#888" stroke-width="1" opacity="1"/><line transform="translate(568,0)" x2="0" y2="5" stroke="#888" stroke-width="1" opacity="1"/><line transform="translate(622,0)" x2="0" y2="5" stroke="#888" stroke-width="1" opacity="1"/></g><g class="mark-text role-axis-label" pointer-events="none"><text text-anchor="middle" transform="translate(26.583333333333332,15)" font-family="sans-serif" font-size="10px" fill="#000" opacity="1">01</text><text text-anchor="middle" transform="translate(80.75,15)" font-family="sans-serif" font-size="10px" fill="#000" opacity="1">02</text><text text-anchor="middle" transform="translate(134.91666666666666,15)" font-family="sans-serif" font-size="10px" fill="#000" opacity="1">03</text><text text-anchor="middle" transform="translate(189.08333333333334,15)" font-family="sans-serif" font-size="10px" fill="#000" opacity="1">04</text><text text-anchor="middle" transform="translate(243.25,15)" font-family="sans-serif" font-size="10px" fill="#000" opacity="1">05</text><text text-anchor="middle" transform="translate(297.41666666666663,15)" font-family="sans-serif" font-size="10px" fill="#000" opacity="1">06</text><text text-anchor="middle" transform="translate(351.5833333333333,15)" font-family="sans-serif" font-size="10px" fill="#000" opacity="1">07</text><text text-anchor="middle" transform="translate(405.74999999999994,15)" font-family="sans-serif" font-size="10px" fill="#000" opacity="1">08</text><text text-anchor="middle" transform="translate(459.91666666666663,15)" font-family="sans-serif" font-size="10px" fill="#000" opacity="1">09</text><text text-anchor="middle" transform="translate(514.0833333333334,15)" font-family="sans-serif" font-size="10px" fill="#000" opacity="1">10</text><text text-anchor="middle" transform="translate(568.25,15)" font-family="sans-serif" font-size="10px" fill="#000" opacity="1">11</text><text text-anchor="middle" transform="translate(622.4166666666666,15)" font-family="sans-serif" font-size="10px" fill="#000" opacity="1">12</text></g><g class="mark-rule role-axis-domain" pointer-events="none"><line transform="translate(0,0)" x2="650" y2="0" stroke="#888" stroke-width="1" opacity="1"/></g><g class="mark-text role-axis-title" pointer-events="none"><text text-anchor="middle" transform="translate(325,33)" font-family="sans-serif" font-size="15px" font-weight="bold" fill="#000" opacity="1">Month</text></g></g><path class="foreground" aria-hidden="true" d="" pointer-events="none" display="none"/></g></g><g class="mark-group role-axis" role="graphics-symbol" aria-roledescription="axis" aria-label="Y-axis titled 'Hour' for a discrete scale with 24 values: 1, 2, 3, 4, 5, ending with 24"><g transform="translate(0.5,0.5)"><path class="background" aria-hidden="true" d="M0,0h0v0h0Z" pointer-events="none"/><g><g class="mark-rule role-axis-tick" pointer-events="none"><line transform="translate(0,7)" x2="-5" y2="0" stroke="#888" stroke-width="1" opacity="1"/><line transform="translate(0,21)" x2="-5" y2="0" stroke="#888" stroke-width="1" opacity="1"/><line transform="translate(0,36)" x2="-5" y2="0" stroke="#888" stroke-width="1" opacity="1"/><line transform="translate(0,51)" x2="-5" y2="0" stroke="#888" stroke-width="1" opacity="1"/><line transform="translate(0,65)" x2="-5" y2="0" stroke="#888" stroke-width="1" opacity="1"/><line transform="translate(0,80)" x2="-5" y2="0" stroke="#888" stroke-width="1" opacity="1"/><line transform="translate(0,94)" x2="-5" y2="0" stroke="#888" stroke-width="1" opacity="1"/><line transform="translate(0,109)" x2="-5" y2="0" stroke="#888" stroke-width="1" opacity="1"/><line transform="translate(0,123)" x2="-5" y2="0" stroke="#888" stroke-width="1" opacity="1"/><line transform="translate(0,138)" x2="-5" y2="0" stroke="#888" stroke-width="1" opacity="1"/><line transform="translate(0,153)" x2="-5" y2="0" stroke="#888" stroke-width="1" opacity="1"/><line transform="translate(0,167)" x2="-5" y2="0" stroke="#888" stroke-width="1" opacity="1"/><line transform="translate(0,182)" x2="-5" y2="0" stroke="#888" stroke-width="1" opacity="1"/><line transform="translate(0,196)" x2="-5" y2="0" stroke="#888" stroke-width="1" opacity="1"/><line transform="translate(0,211)" x2="-5" y2="0" stroke="#888" stroke-width="1" opacity="1"/><line transform="translate(0,226)" x2="-5" y2="0" stroke="#888" stroke-width="1" opacity="1"/><line transform="translate(0,240)" x2="-5" y2="0" stroke="#888" stroke-width="1" opacity="1"/><line transform="translate(0,255)" x2="-5" y2="0" stroke="#888" stroke-width="1" opacity="1"/><line transform="translate(0,269)" x2="-5" y2="0" stroke="#888" stroke-width="1" opacity="1"/><line transform="translate(0,284)" x2="-5" y2="0" stroke="#888" stroke-width="1" opacity="1"/><line transform="translate(0,298)" x2="-5" y2="0" stroke="#888" stroke-width="1" opacity="1"/><line transform="translate(0,313)" x2="-5" y2="0" stroke="#888" stroke-width="1" opacity="1"/><line transform="translate(0,328)" x2="-5" y2="0" stroke="#888" stroke-width="1" opacity="1"/><line transform="translate(0,342)" x2="-5" y2="0" stroke="#888" stroke-width="1" opacity="1"/></g><g class="mark-text role-axis-label" pointer-events="none"><text text-anchor="end" transform="translate(-7,9.791666666666668)" font-family="sans-serif" font-size="10px" fill="#000" opacity="1">1</text><text text-anchor="end" transform="translate(-7,24.375)" font-family="sans-serif" font-size="10px" fill="#000" opacity="1">2</text><text text-anchor="end" transform="translate(-7,38.958333333333336)" font-family="sans-serif" font-size="10px" fill="#000" opacity="1">3</text><text text-anchor="end" transform="translate(-7,53.541666666666664)" font-family="sans-serif" font-size="10px" fill="#000" opacity="1">4</text><text text-anchor="end" transform="translate(-7,68.125)" font-family="sans-serif" font-size="10px" fill="#000" opacity="1">5</text><text text-anchor="end" transform="translate(-7,82.70833333333334)" font-family="sans-serif" font-size="10px" fill="#000" opacity="1">6</text><text text-anchor="end" transform="translate(-7,97.29166666666667)" font-family="sans-serif" font-size="10px" fill="#000" opacity="1">7</text><text text-anchor="end" transform="translate(-7,111.87500000000001)" font-family="sans-serif" font-size="10px" fill="#000" opacity="1">8</text><text text-anchor="end" transform="translate(-7,126.45833333333334)" font-family="sans-serif" font-size="10px" fill="#000" opacity="1">9</text><text text-anchor="end" transform="translate(-7,141.04166666666666)" font-family="sans-serif" font-size="10px" fill="#000" opacity="1">10</text><text text-anchor="end" transform="translate(-7,155.625)" font-family="sans-serif" font-size="10px" fill="#000" opacity="1">11</text><text text-anchor="end" transform="translate(-7,170.20833333333334)" font-family="sans-serif" font-size="10px" fill="#000" opacity="1">12</text><text text-anchor="end" transform="translate(-7,184.79166666666666)" font-family="sans-serif" font-size="10px" fill="#000" opacity="1">13</text><text text-anchor="end" transform="translate(-7,199.375)" font-family="sans-serif" font-size="10px" fill="#000" opacity="1">14</text><text text-anchor="end" transform="translate(-7,213.95833333333334)" font-family="sans-serif" font-size="10px" fill="#000" opacity="1">15</text><text text-anchor="end" transform="translate(-7,228.54166666666666)" font-family="sans-serif" font-size="10px" fill="#000" opacity="1">16</text><text text-anchor="end" transform="translate(-7,243.125)" font-family="sans-serif" font-size="10px" fill="#000" opacity="1">17</text><text text-anchor="end" transform="translate(-7,257.70833333333337)" font-family="sans-serif" font-size="10px" fill="#000" opacity="1">18</text><text text-anchor="end" transform="translate(-7,272.2916666666667)" font-family="sans-serif" font-size="10px" fill="#000" opacity="1">19</text><text text-anchor="end" transform="translate(-7,286.87500000000006)" font-family="sans-serif" font-size="10px" fill="#000" opacity="1">20</text><text text-anchor="end" transform="translate(-7,301.45833333333337)" font-family="sans-serif" font-size="10px" fill="#000" opacity="1">21</text><text text-anchor="end" transform="translate(-7,316.0416666666667)" font-family="sans-serif" font-size="10px" fill="#000" opacity="1">22</text><text text-anchor="end" transform="translate(-7,330.62500000000006)" font-family="sans-serif" font-size="10px" fill="#000" opacity="1">23</text><text text-anchor="end" transform="translate(-7,345.20833333333337)" font-family="sans-serif" font-size="10px" fill="#000" opacity="1">24</text></g><g class="mark-rule role-axis-domain" pointer-events="none"><line transform="translate(0,0)" x2="0" y2="350" stroke="#888" stroke-width="1" opacity="1"/></g><g class="mark-text role-axis-title" pointer-events="none"><text text-anchor="middle" transform="translate(-22.123046875,175) rotate(-90) translate(0,-3)" font-family="sans-serif" font-size="15px" font-weight="bold" fill="#000" opacity="1">Hour</text></g></g><path class="foreground" aria-hidden="true" d="" pointer-events="none" display="none"/></g></g></g><path class="foreground" aria-hidden="true" d="" display="none"/></g></g></g><defs><linearGradient id="gradient_0" x1="0" x2="0" y1="1" y2="0"><stop offset="0" stop-color="rgb(239, 249, 189)"/><stop offset="0.04251012145748988" stop-color="rgb(230, 246, 185)"/><stop offset="0.0931174089068826" stop-color="rgb(220, 242, 181)"/><stop offset="0.1437246963562753" stop-color="rgb(206, 236, 180)"/><stop offset="0.19433198380566802" stop-color="rgb(191, 230, 181)"/><stop offset="0.24493927125506074" stop-color="rgb(171, 222, 183)"/><stop offset="0.29554655870445345" stop-color="rgb(150, 214, 185)"/><stop offset="0.34615384615384615" stop-color="rgb(128, 206, 187)"/><stop offset="0.3967611336032389" stop-color="rgb(106, 198, 190)"/><stop offset="0.4473684210526316" stop-color="rgb(88, 189, 192)"/><stop offset="0.4979757085020243" stop-color="rgb(70, 180, 194)"/><stop offset="0.548582995951417" stop-color="rgb(57, 169, 193)"/><stop offset="0.5991902834008097" stop-color="rgb(44, 158, 192)"/><stop offset="0.6497975708502024" stop-color="rgb(39, 144, 188)"/><stop offset="0.7004048582995951" stop-color="rgb(33, 130, 184)"/><stop offset="0.7510121457489879" stop-color="rgb(33, 114, 177)"/><stop offset="0.8016194331983806" stop-color="rgb(33, 99, 170)"/><stop offset="0.8522267206477733" stop-color="rgb(34, 84, 163)"/><stop offset="0.902834008097166" stop-color="rgb(35, 70, 155)"/><stop offset="0.9534412955465587" stop-color="rgb(31, 59, 144)"/><stop offset="1" stop-color="rgb(28, 49, 133)"/></linearGradient></defs></svg>