<svg xmlns="http://www.w3.org/2000/svg" xmlns:xlink="http://www.w3.org/1999/xlink" version="1.1" class="marks" width="855" height="370" viewBox="0 0 855 370"><rect width="855" height="370" fill="white"/><g fill="none" stroke-miterlimit="10" transform="translate(69,29)"><g class="mark-group role-frame root" role="graphics-object" aria-roledescription="group mark container"><g transform="translate(0,0)"><path class="background" aria-hidden="true" d="M0.5,0.5h650v300h-650Z" stroke="#ddd"/><g><g class="mark-rect role-mark marks" role="graphics-symbol" aria-roledescription="rect mark container"><path d="M0,0h27.083333333333332v75h-27.083333333333332Z" fill="rgb(187, 228, 181)"/><path d="M27.083333333333332,0h27.083333333333332v75h-27.083333333333332Z" fill="rgb(203, 235, 181)"/><path d="M54.166666666666664,0h27.083333333333332v75h-27.083333333333332Z" fill="rgb(209, 237, 180)"/><path d="M81.25,0h27.083333333333332v75h-27.083333333333332Z" fill="rgb(211, 238, 180)"/><path d="M108.33333333333333,0h27.083333333333332v75h-27.083333333333332Z" fill="rgb(204, 235, 181)"/><path d="M135.41666666666666,0h27.083333333333332v75h-27.083333333333332Z" fill="rgb(180, 226, 182)"/><path d="M162.5,0h27.083333333333332v75h-27.083333333333332Z" fill="rgb(128, 206, 187)"/><path d="M189.58333333333331,0h27.083333333333332v75h-27.083333333333332Z" fill="rgb(97, 193, 191)"/><path d="M216.66666666666666,0h27.083333333333332v75h-27.083333333333332Z" fill="rgb(67, 178, 194)"/><path d="M243.75,0h27.083333333333332v75h-27.083333333333332Z" fill="rgb(58, 171, 193)"/><path d="M270.8333333333333,0h27.083333333333332v75h-27.083333333333332Z" fill="rgb(55, 168, 193)"/><path d="M297.91666666666663,0h27.083333333333332v75h-27.083333333333332Z" fill="rgb(61, 173, 193)"/><path d="M325,0h27.083333333333332v75h-27.083333333333332Z" fill="rgb(62, 174, 193)"/><path d="M352.0833333333333,0h27.083333333333332v75h-27.083333333333332Z" fill="rgb(60, 172, 193)"/><path d="M379.16666666666663,0h27.083333333333332v75h-27.083333333333332Z" fill="rgb(61, 173, 193)"/><path d="M406.25,0h27.083333333333332v75h-27.083333333333332Z" fill="rgb(56, 169, 193)"/><path d="M433.3333333333333,0h27.083333333333332v75h-27.083333333333332Z" fill="rgb(47, 161, 192)"/><path d="M460.41666666666663,0h27.083333333333332v75h-27.083333333333332Z" fill="rgb(43, 156, 191)"/><path d="M487.5,0h27.083333333333332v75h-27.083333333333332Z" fill="rgb(40, 147, 189)"/><path d="M514.5833333333333,0h27.083333333333332v75h-27.083333333333332Z" fill="rgb(38, 142, 188)"/><path d="M541.6666666666666,0h27.083333333333332v75h-27.083333333333332Z" fill="rgb(42, 152, 190)"/><path d="M568.75,0h27.083333333333332v75h-27.083333333333332Z" fill="rgb(64, 175, 194)"/><path d="M595.8333333333333,0h27.083333333333332v75h-27.083333333333332Z" fill="rgb(104, 197, 190)"/><path d="M622.9166666666666,0h27.083333333333332v75h-27.083333333333332Z" fill="rgb(148, 213, 185)"/><path d="M0,75h27.083333333333332v75h-27.083333333333332Z" fill="rgb(183, 227, 182)"/><path d="M27.083333333333332,75h27.083333333333332v75h-27.083333333333332Z" fill="rgb(201, 234, 181)"/><path d="M54.166666666666664,75h27.083333333333332v75h-27.083333333333332Z" fill="rgb(208, 236, 180)"/><path d="M81.25,75h27.083333333333332v75h-27.083333333333332Z" fill="rgb(209, 237, 180)"/><path d="M108.33333333333333,75h27.083333333333332v75h-27.083333333333332Z" fill="rgb(204, 235, 180)"/><path d="M135.41666666666666,75h27.083333333333332v75h-27.083333333333332Z" fill="rgb(187, 228, 181)"/><path d="M162.5,75h27.083333333333332v75h-27.083333333333332Z" fill="rgb(142, 211, 186)"/><path d="M189.58333333333331,75h27.083333333333332v75h-27.083333333333332Z" fill="rgb(114, 200, 189)"/><path d="M216.66666666666666,75h27.083333333333332v75h-27.083333333333332Z" fill="rgb(83, 187, 192)"/><path d="M243.75,75h27.083333333333332v75h-27.083333333333332Z" fill="rgb(73, 182, 194)"/><path d="M270.8333333333333,75h27.083333333333332v75h-27.083333333333332Z" fill="rgb(69, 180, 194)"/><path d="M297.91666666666663,75h27.083333333333332v75h-27.083333333333332Z" fill="rgb(74, 182, 193)"/><path d="M325,75h27.083333333333332v75h-27.083333333333332Z" fill="rgb(77, 184, 193)"/><path d="M352.0833333333333,75h27.083333333333332v75h-27.083333333333332Z" fill="rgb(77, 184, 193)"/><path d="M379.16666666666663,75h27.083333333333332v75h-27.083333333333332Z" fill="rgb(82, 186, 193)"/><path d="M406.25,75h27.083333333333332v75h-27.083333333333332Z" fill="rgb(84, 187, 192)"/><path d="M433.3333333333333,75h27.083333333333332v75h-27.083333333333332Z" fill="rgb(83, 187, 192)"/><path d="M460.41666666666663,75h27.083333333333332v75h-27.083333333333332Z" fill="rgb(76, 184, 193)"/><path d="M487.5,75h27.083333333333332v75h-27.083333333333332Z" fill="rgb(65, 177, 194)"/><path d="M514.5833333333333,75h27.083333333333332v75h-27.083333333333332Z" fill="rgb(57, 169, 193)"/><path d="M541.6666666666666,75h27.083333333333332v75h-27.083333333333332Z" fill="rgb(44, 157, 192)"/><path d="M568.75,75h27.083333333333332v75h-27.083333333333332Z" fill="rgb(60, 172, 193)"/><path d="M595.8333333333333,75h27.083333333333332v75h-27.083333333333332Z" fill="rgb(100, 195, 191)"/><path d="M622.9166666666666,75h27.083333333333332v75h-27.083333333333332Z" fill="rgb(147, 212, 185)"/><path d="M0,150h27.083333333333332v75h-27.083333333333332Z" fill="rgb(221, 242, 181)"/><path d="M27.083333333333332,150h27.083333333333332v75h-27.083333333333332Z" fill="rgb(232, 246, 186)"/><path d="M54.166666666666664,150h27.083333333333332v75h-27.083333333333332Z" fill="rgb(237, 248, 188)"/><path d="M81.25,150h27.083333333333332v75h-27.083333333333332Z" fill="rgb(239, 249, 189)"/><path d="M108.33333333333333,150h27.083333333333332v75h-27.083333333333332Z" fill="rgb(239, 249, 189)"/><path d="M135.41666666666666,150h27.083333333333332v75h-27.083333333333332Z" fill="rgb(229, 245, 185)"/><path d="M162.5,150h27.083333333333332v75h-27.083333333333332Z" fill="rgb(210, 237, 180)"/><path d="M189.58333333333331,150h27.083333333333332v75h-27.083333333333332Z" fill="rgb(190, 230, 181)"/><path d="M216.66666666666666,150h27.083333333333332v75h-27.083333333333332Z" fill="rgb(148, 213, 185)"/><path d="M243.75,150h27.083333333333332v75h-27.083333333333332Z" fill="rgb(126, 205, 188)"/><path d="M270.8333333333333,150h27.083333333333332v75h-27.083333333333332Z" fill="rgb(121, 203, 188)"/><path d="M297.91666666666663,150h27.083333333333332v75h-27.083333333333332Z" fill="rgb(113, 200, 189)"/><path d="M325,150h27.083333333333332v75h-27.083333333333332Z" fill="rgb(109, 199, 189)"/><path d="M352.0833333333333,150h27.083333333333332v75h-27.083333333333332Z" fill="rgb(105, 197, 190)"/><path d="M379.16666666666663,150h27.083333333333332v75h-27.083333333333332Z" fill="rgb(108, 198, 190)"/><path d="M406.25,150h27.083333333333332v75h-27.083333333333332Z" fill="rgb(110, 199, 189)"/><path d="M433.3333333333333,150h27.083333333333332v75h-27.083333333333332Z" fill="rgb(113, 200, 189)"/><path d="M460.41666666666663,150h27.083333333333332v75h-27.083333333333332Z" fill="rgb(114, 200, 189)"/><path d="M487.5,150h27.083333333333332v75h-27.083333333333332Z" fill="rgb(119, 202, 188)"/><path d="M514.5833333333333,150h27.083333333333332v75h-27.083333333333332Z" fill="rgb(128, 205, 187)"/><path d="M541.6666666666666,150h27.083333333333332v75h-27.083333333333332Z" fill="rgb(99, 194, 191)"/><path d="M568.75,150h27.083333333333332v75h-27.083333333333332Z" fill="rgb(94, 192, 191)"/><path d="M595.8333333333333,150h27.083333333333332v75h-27.083333333333332Z" fill="rgb(150, 214, 185)"/><path d="M622.9166666666666,150h27.083333333333332v75h-27.083333333333332Z" fill="rgb(195, 231, 181)"/><path d="M0,225h27.083333333333332v75h-27.083333333333332Z" fill="rgb(67, 178, 194)"/><path d="M27.083333333333332,225h27.083333333333332v75h-27.083333333333332Z" fill="rgb(86, 188, 192)"/><path d="M54.166666666666664,225h27.083333333333332v75h-27.083333333333332Z" fill="rgb(96, 193, 191)"/><path d="M81.25,225h27.083333333333332v75h-27.083333333333332Z" fill="rgb(97, 193, 191)"/><path d="M108.33333333333333,225h27.083333333333332v75h-27.083333333333332Z" fill="rgb(88, 189, 192)"/><path d="M135.41666666666666,225h27.083333333333332v75h-27.083333333333332Z" fill="rgb(65, 177, 194)"/><path d="M162.5,225h27.083333333333332v75h-27.083333333333332Z" fill="rgb(40, 147, 189)"/><path d="M189.58333333333331,225h27.083333333333332v75h-27.083333333333332Z" fill="rgb(33, 122, 180)"/><path d="M216.66666666666666,225h27.083333333333332v75h-27.083333333333332Z" fill="rgb(34, 87, 164)"/><path d="M243.75,225h27.083333333333332v75h-27.083333333333332Z" fill="rgb(35, 73, 157)"/><path d="M270.8333333333333,225h27.083333333333332v75h-27.083333333333332Z" fill="rgb(34, 68, 153)"/><path d="M297.91666666666663,225h27.083333333333332v75h-27.083333333333332Z" fill="rgb(35, 73, 157)"/><path d="M325,225h27.083333333333332v75h-27.083333333333332Z" fill="rgb(35, 76, 159)"/><path d="M352.0833333333333,225h27.083333333333332v75h-27.083333333333332Z" fill="rgb(35, 76, 159)"/><path d="M379.16666666666663,225h27.083333333333332v75h-27.083333333333332Z" fill="rgb(35, 77, 159)"/><path d="M406.25,225h27.083333333333332v75h-27.083333333333332Z" fill="rgb(34, 69, 154)"/><path d="M433.3333333333333,225h27.083333333333332v75h-27.083333333333332Z" fill="rgb(31, 57, 142)"/><path d="M460.41666666666663,225h27.083333333333332v75h-27.083333333333332Z" fill="rgb(28, 49, 133)"/><path d="M487.5,225h27.083333333333332v75h-27.083333333333332Z" fill="rgb(30, 55, 140)"/><path d="M514.5833333333333,225h27.083333333333332v75h-27.083333333333332Z" fill="rgb(33, 65, 150)"/><path d="M541.6666666666666,225h27.083333333333332v75h-27.083333333333332Z" fill="rgb(35, 75, 158)"/><path d="M568.75,225h27.083333333333332v75h-27.083333333333332Z" fill="rgb(33, 94, 167)"/><path d="M595.8333333333333,225h27.083333333333332v75h-27.083333333333332Z" fill="rgb(33, 129, 184)"/><path d="M622.9166666666666,225h27.083333333333332v75h-27.083333333333332Z" fill="rgb(43, 156, 191)"/></g><g class="mark-group role-legend" role="graphics-symbol" aria-roledescription="legend" aria-label="Gradient legend titled 'CONSUMPTION' for fill color with values from 12,847 to 22,067"><g transform="translate(668,0)"><path class="background" aria-hidden="true" d="M0,0h113v220h-113Z" pointer-events="none"/><g><g class="mark-group role-legend-entry"><g transform="translate(0,20)"><path class="background" aria-hidden="true" d="M0,0h0v0h0Z" pointer-events="none"/><g><g class="mark-rect role-legend-gradient" pointer-events="none"><path d="M0,0h16v200h-16Z" fill="url(#gradient_1)" stroke="#ddd" stroke-width="0" opacity="1"/></g><g class="mark-text role-legend-label" pointer-events="none"><text text-anchor="start" transform="translate(18,178.98915401301517)" font-family="sans-serif" font-size="14px" fill="#000" opacity="1">14,000</text><text text-anchor="start" transform="translate(18,135.6052060737527)" font-family="sans-serif" font-size="14px" fill="#000" opacity="1">16,000</text><text text-anchor="start" transform="translate(18,92.22125813449024)" font-family="sans-serif" font-size="14px" fill="#000" opacity="1">18,000</text><text text-anchor="start" transform="translate(18,48.837310195227765)" font-family="sans-serif" font-size="14px" fill="#000" opacity="1">20,000</text><text text-anchor="start" transform="translate(18,5.453362255965285)" font-family="sans-serif" font-size="14px" fill="#000" opacity="1">22,000</text></g></g><path class="foreground" aria-hidden="true" d="" pointer-events="none" display="none"/></g></g><g class="mark-text role-legend-title" pointer-events="none"><text text-anchor="start" transform="translate(0,12)" font-family="sans-serif" font-size="15px" font-weight="bold" fill="#000" opacity="1">CONSUMPTION</text></g></g><path class="foreground" aria-hidden="true" d="" pointer-events="none" display="none"/></g></g><g class="mark-group role-title"><g transform="translate(325,-24)"><path class="background" aria-hidden="true" d="M0,0h0v0h0Z" pointer-events="none"/><g><g class="mark-text role-title-text" role="graphics-symbol" aria-roledescription="title" aria-label="Title text 'Electricity consumption changing during the day in terms of seasons'" pointer-events="none"><text text-anchor="middle" transform="translate(0,16)" font-family="sans-serif" font-size="20px" font-weight="bold" fill="#000" opacity="1">Electricity consumption changing during the day in terms of seasons</text></g></g><path class="foreground" aria-hidden="true" d="" pointer-events="none" display="none"/></g></g><g class="mark-group role-axis" role="graphics-symbol" aria-roledescription="axis" aria-label="X-axis titled 'Hour' for a discrete scale with 24 values: 1, 2, 3, 4, 5, ending with 24"><g transform="translate(0.5,300.5)"><path class="background" aria-hidden="true" d="M0,0h0v0h0Z" pointer-events="none"/><g><g class="mark-rule role-axis-tick" pointer-events="none"><line transform="translate(13,0)" x2="0" y2="5" stroke="#888" stroke-width="1" opacity="1"/><line transform="translate(40,0)" x2="0" y2="5" stroke="#888" stroke-width="1" opacity="1"/><line transform="translate(67,0)" x2="0" y2="5" stroke="#888" stroke-width="1" opacity="1"/><line transform="translate(94,0)" x2="0" y2="5" stroke="#888" stroke-width="1" opacity="1"/><line transform="translate(121,0)" x2="0" y2="5" stroke="#888" stroke-width="1" opacity="1"/><line transform="translate(148,0)" x2="0" y2="5" stroke="#888" stroke-width="1" opacity="1"/><line transform="translate(176,0)" x2="0" y2="5" stroke="#888" stroke-width="1" opacity="1"/><line transform="translate(203,0)" x2="0" y2="5" stroke="#888" stroke-width="1" opacity="1"/><line transform="translate(230,0)" x2="0" y2="5" stroke="#888" stroke-width="1" opacity="1"/><line transform="translate(257,0)" x2="0" y2="5" stroke="#888" stroke-width="1" opacity="1"/><line transform="translate(284,0)" x2="0" y2="5" stroke="#888" stroke-width="1" opacity="1"/><line transform="translate(311,0)" x2="0" y2="5" stroke="#888" stroke-width="1" opacity="1"/><line transform="translate(338,0)" x2="0" y2="5" stroke="#888" stroke-width="1" opacity="1"/><line transform="translate(365,0)" x2="0" y2="5" stroke="#888" stroke-width="1" opacity="1"/><line transform="translate(392,0)" x2="0" y2="5" stroke="#888" stroke-width="1" opacity="1"/><line transform="translate(419,0)" x2="0" y2="5" stroke="#888" stroke-width="1" opacity="1"/><line transform="translate(446,0)" x2="0" y2="5" stroke="#888" stroke-width="1" opacity="1"/><line transform="translate(473,0)" x2="0" y2="5" stroke="#888" stroke-width="1" opacity="1"/><line transform="translate(501,0)" x2="0" y2="5" stroke="#888" stroke-width="1" opacity="1"/><line transform="translate(528,0)" x2="0" y2="5" stroke="#888" stroke-width="1" opacity="1"/><line transform="translate(555,0)" x2="0" y2="5" stroke="#888" stroke-width="1" opacity="1"/><line transform="translate(582,0)" x2="0" y2="5" stroke="#888" stroke-width="1" opacity="1"/><line transform="translate(609,0)" x2="0" y2="5" stroke="#888" stroke-width="1" opacity="1"/><line transform="translate(636,0)" x2="0" y2="5" stroke="#888" stroke-width="1" opacity="1"/></g><g class="mark-text role-axis-label" pointer-events="none"><text text-anchor="middle" transform="translate(13.041666666666666,15)" font-family="sans-serif" font-size="10px" fill="#000" opacity="1">1</text><text text-anchor="middle" transform="translate(40.125,15)" font-family="sans-serif" font-size="10px" fill="#000" opacity="1">2</text><text text-anchor="middle" transform="translate(67.20833333333333,15)" font-family="sans-serif" font-size="10px" fill="#000" opacity="1">3</text><text text-anchor="middle" transform="translate(94.29166666666667,15)" font-family="sans-serif" font-size="10px" fill="#000" opacity="1">4</text><text text-anchor="middle" transform="translate(121.375,15)" font-family="sans-serif" font-size="10px" fill="#000" opacity="1">5</text><text text-anchor="middle" transform="translate(148.45833333333331,15)" font-family="sans-serif" font-size="10px" fill="#000" opacity="1">6</text><text text-anchor="middle" transform="translate(175.54166666666666,15)" font-family="sans-serif" font-size="10px" fill="#000" opacity="1">7</text><text text-anchor="middle" transform="translate(202.62499999999997,15)" font-family="sans-serif" font-size="10px" fill="#000" opacity="1">8</text><text text-anchor="middle" transform="translate(229.70833333333331,15)" font-family="sans-serif" font-size="10px" fill="#000" opacity="1">9</text><text text-anchor="middle" transform="translate(256.7916666666667,15)" font-family="sans-serif" font-size="10px" fill="#000" opacity="1">10</text><text text-anchor="middle" transform="translate(283.875,15)" font-family="sans-serif" font-size="10px" fill="#000" opacity="1">11</text><text text-anchor="middle" transform="translate(310.9583333333333,15)" font-family="sans-serif" font-size="10px" fill="#000" opacity="1">12</text><text text-anchor="middle" transform="translate(338.0416666666667,15)" font-family="sans-serif" font-size="10px" fill="#000" opacity="1">13</text><text text-anchor="middle" transform="translate(365.125,15)" font-family="sans-serif" font-size="10px" fill="#000" opacity="1">14</text><text text-anchor="middle" transform="translate(392.2083333333333,15)" font-family="sans-serif" font-size="10px" fill="#000" opacity="1">15</text><text text-anchor="middle" transform="translate(419.2916666666667,15)" font-family="sans-serif" font-size="10px" fill="#000" opacity="1">16</text><text text-anchor="middle" transform="translate(446.375,15)" font-family="sans-serif" font-size="10px" fill="#000" opacity="1">17</text><text text-anchor="middle" transform="translate(473.4583333333333,15)" font-family="sans-serif" font-size="10px" fill="#000" opacity="1">18</text><text text-anchor="middle" transform="translate(500.5416666666667,15)" font-family="sans-serif" font-size="10px" fill="#000" opacity="1">19</text><text text-anchor="middle" transform="translate(527.6249999999999,15)" font-family="sans-serif" font-size="10px" fill="#000" opacity="1">20</text><text text-anchor="middle" transform="translate(554.7083333333333,15)" font-family="sans-serif" font-size="10px" fill="#000" opacity="1">21</text><text text-anchor="middle" transform="translate(581.7916666666666,15)" font-family="sans-serif" font-size="10px" fill="#000" opacity="1">22</text><text text-anchor="middle" transform="translate(608.8749999999999,15)" font-family="sans-serif" font-size="10px" fill="#000" opacity="1">23</text><text text-anchor="middle" transform="translate(635.9583333333333,15)" font-family="sans-serif" font-size="10px" fill="#000" opacity="1">24</text></g><g class="mark-rule role-axis-domain" pointer-events="none"><line transform="translate(0,0)" x2="650" y2="0" stroke="#888" stroke-width="1" opacity="1"/></g><g class="mark-text role-axis-title" pointer-events="none"><text text-anchor="middle" transform="translate(325,33)" font-family="sans-serif" font-size="15px" font-weight="bold" fill="#000" opacity="1">Hour</text></g></g><path class="foreground" aria-hidden="true" d="" pointer-events="none" display="none"/></g></g><g class="mark-group role-axis" role="graphics-symbol" aria-roledescription="axis" aria-label="Y-axis titled 'Season' for a discrete scale with 4 values: Autumn, Spring, Summer, Winter"><g transform="translate(0.5,0.5)"><path class="background" aria-hidden="true" d="M0,0h0v0h0Z" pointer-events="none"/><g><g class="mark-rule role-axis-tick" pointer-events="none"><line transform="translate(0,37)" x2="-5" y2="0" stroke="#888" stroke-width="1" opacity="1"/><line transform="translate(0,112)" x2="-5" y2="0" stroke="#888" stroke-width="1" opacity="1"/><line transform="translate(0,187)" x2="-5" y2="0" stroke="#888" stroke-width="1" opacity="1"/><line transform="translate(0,262)" x2="-5" y2="0" stroke="#888" stroke-width="1" opacity="1"/></g><g class="mark-text role-axis-label" pointer-events="none"><text text-anchor="end" transform="translate(-7,40)" font-family="sans-serif" font-size="10px" fill="#000" opacity="1">Autumn</text><text text-anchor="end" transform="translate(-7,115)" font-family="sans-serif" font-size="10px" fill="#000" opacity="1">Spring</text><text text-anchor="end" transform="translate(-7,190)" font-family="sans-serif" font-size="10px" fill="#000" opacity="1">Summer</text><text text-anchor="end" transform="translate(-7,265)" font-family="sans-serif" font-size="10px" fill="#000" opacity="1">Winter</text></g><g class="mark-rule role-axis-domain" pointer-events="none"><line transform="translate(0,0)" x2="0" y2="300" stroke="#888" stroke-width="1" opacity="1"/></g><g class="mark-text role-axis-title" pointer-events="none"><text text-anchor="middle" transform="translate(-48.783203125,150) rotate(-90) translate(0,-3)" font-family="sans-serif" font-size="15px" font-weight="bold" fill="#000" opacity="1">Season</text></g></g><path class="foreground" aria-hidden="true" d="" pointer-events="none" display="none"/></g></g></g><path class="foreground" aria-hidden="true" d="" display="none"/></g></g></g><defs><linearGradient id="gradient_1" x1="0" x2="0" y1="1" y2="0"><stop offset="0" stop-color="rgb(239, 249, 189)"/><stop offset="0.016594360086767897" stop-color="rgb(236, 248, 188)"/><stop offset="0.07082429501084599" stop-color="rgb(225, 243, 183)"/><stop offset="0.12505422993492407" stop-color="rgb(211, 238, 180)"/><stop offset="0.17928416485900217" stop-color="rgb(195, 231, 181)"/><stop offset="0.23351409978308027" stop-color="rgb(175, 224, 182)"/><stop offset="0.28774403470715837" stop-color="rgb(153, 215, 185)"/><stop offset="0.34197396963123644" stop-color="rgb(130, 206, 187)"/><stop offset="0.3962039045553145" stop-color="rgb(107, 198, 190)"/><stop offset="0.45043383947939264" stop-color="rgb(87, 188, 192)"/><stop offset="0.5046637744034708" stop-color="rgb(68, 179, 194)"/><stop offset="0.5588937093275488" stop-color="rgb(54, 167, 193)"/><stop offset="0.6131236442516269" stop-color="rgb(43, 154, 191)"/><stop offset="0.667353579175705" stop-color="rgb(37, 139, 187)"/><stop offset="0.721583514099783" stop-color="rgb(33, 123, 181)"/><stop offset="0.7758134490238612" stop-color="rgb(33, 106, 173)"/><stop offset="0.8300433839479393" stop-color="rgb(34, 91, 166)"/><stop offset="0.8842733188720173" stop-color="rgb(35, 75, 158)"/><stop offset="0.9385032537960954" stop-color="rgb(32, 63, 147)"/><stop offset="0.9927331887201736" stop-color="rgb(29, 51, 135)"/><stop offset="1" stop-color="rgb(28, 49, 133)"/></linearGradient></defs></svg>